<?xml version="1.0" encoding="utf-8"?>
<!DOCTYPE svg PUBLIC "-//W3C//DTD SVG 1.1//EN" "http://www.w3.org/Graphics/SVG/1.1/DTD/svg11.dtd">
<svg xmlns="http://www.w3.org/2000/svg" xmlns:xlink="http://www.w3.org/1999/xlink" version="1.1" baseProfile="full" width="81.92" height="81.92" viewBox="0 0 81.92 81.92" enable-background="new 0 0 81.92 81.92" xml:space="preserve">
	<rect x="0" y="0" fill="#23282D" fill-opacity="1" stroke-width="0.32" stroke-linejoin="round" width="81.92" height="81.92"/>
	<rect x="10.5" y="10.5" fill="#23282D" fill-opacity="1" stroke-width="0.32" stroke-linejoin="miter" stroke="#B4B9BE" stroke-opacity="1" width="61.5" height="61.5"/>
	<path fill="#B4B9BE" fill-opacity="1" stroke-width="0.32" stroke-linejoin="round" d="M 13.1667,10.34L 14.5,10.34L 14.5,10.66L 13.1667,10.66L 13.1667,10.34 Z M 15.8333,10.34L 17.1667,10.34L 17.1667,10.66L 15.8333,10.66L 15.8333,10.34 Z M 18.5,10.34L 19.8333,10.34L 19.8333,10.66L 18.5,10.66L 18.5,10.34 Z M 21.1667,10.34L 22.5,10.34L 22.5,10.66L 21.1667,10.66L 21.1667,10.34 Z M 23.8333,10.34L 25.1667,10.34L 25.1667,10.66L 23.8333,10.66L 23.8333,10.34 Z M 26.5,10.34L 27.8333,10.34L 27.8333,10.66L 26.5,10.66L 26.5,10.34 Z M 29.1667,10.34L 30.5,10.34L 30.5,10.66L 29.1667,10.66L 29.1667,10.34 Z M 31.8333,10.34L 33.1667,10.34L 33.1667,10.66L 31.8333,10.66L 31.8333,10.34 Z M 34.5,10.34L 35.8333,10.34L 35.8333,10.66L 34.5,10.66L 34.5,10.34 Z M 37.1667,10.34L 38.5,10.34L 38.5,10.66L 37.1667,10.66L 37.1667,10.34 Z M 39.8333,10.34L 41.1667,10.34L 41.1667,10.66L 39.8333,10.66L 39.8333,10.34 Z M 42.5,10.34L 43.8333,10.34L 43.8333,10.66L 42.5,10.66L 42.5,10.34 Z M 45.1667,10.34L 46.5,10.34L 46.5,10.66L 45.1667,10.66L 45.1667,10.34 Z M 47.8333,10.34L 49.1667,10.34L 49.1667,10.66L 47.8333,10.66L 47.8333,10.34 Z M 50.5,10.34L 51.8333,10.34L 51.8333,10.66L 50.5,10.66L 50.5,10.34 Z M 53.1667,10.34L 54.5,10.34L 54.5,10.66L 53.1667,10.66L 53.1667,10.34 Z M 55.8333,10.34L 57.1667,10.34L 57.1667,10.66L 55.8333,10.66L 55.8333,10.34 Z M 58.5,10.34L 59.8333,10.34L 59.8333,10.66L 58.5,10.66L 58.5,10.34 Z M 61.1667,10.34L 62.5,10.34L 62.5,10.66L 61.1667,10.66L 61.1667,10.34 Z M 63.8333,10.34L 65.1667,10.34L 65.1667,10.66L 63.8333,10.66L 63.8333,10.34 Z M 66.5,10.34L 67.8333,10.34L 67.8333,10.66L 66.5,10.66L 66.5,10.34 Z M 69.1667,10.34L 70.5,10.34L 70.5,10.66L 69.1667,10.66L 69.1667,10.34 Z M 71.8333,10.34L 72.16,10.34L 72.16,11.6667L 71.84,11.6667L 71.84,10.5L 72,10.66L 71.8333,10.66L 71.8333,10.34 Z M 72.16,13L 72.16,14.3333L 71.84,14.3333L 71.84,13L 72.16,13 Z M 72.16,15.6667L 72.16,17L 71.84,17L 71.84,15.6667L 72.16,15.6667 Z M 72.16,18.3333L 72.16,19.6667L 71.84,19.6667L 71.84,18.3333L 72.16,18.3333 Z M 72.16,21L 72.16,22.3333L 71.84,22.3333L 71.84,21L 72.16,21 Z M 72.16,23.6667L 72.16,25L 71.84,25L 71.84,23.6667L 72.16,23.6667 Z M 72.16,26.3333L 72.16,27.6667L 71.84,27.6667L 71.84,26.3333L 72.16,26.3333 Z M 72.16,29L 72.16,30.3333L 71.84,30.3333L 71.84,29L 72.16,29 Z M 72.16,31.6667L 72.16,33L 71.84,33L 71.84,31.6667L 72.16,31.6667 Z M 72.16,34.3333L 72.16,35.6667L 71.84,35.6667L 71.84,34.3333L 72.16,34.3333 Z M 72.16,37L 72.16,38.3333L 71.84,38.3333L 71.84,37L 72.16,37 Z M 72.16,39.6667L 72.16,41L 71.84,41L 71.84,39.6667L 72.16,39.6667 Z M 72.16,42.3333L 72.16,43.6667L 71.84,43.6667L 71.84,42.3333L 72.16,42.3333 Z M 72.16,45L 72.16,46.3333L 71.84,46.3333L 71.84,45L 72.16,45 Z M 72.16,47.6667L 72.16,49L 71.84,49L 71.84,47.6667L 72.16,47.6667 Z M 72.16,50.3333L 72.16,51.6667L 71.84,51.6667L 71.84,50.3333L 72.16,50.3333 Z M 72.16,53L 72.16,54.3333L 71.84,54.3333L 71.84,53L 72.16,53 Z M 72.16,55.6667L 72.16,57L 71.84,57L 71.84,55.6667L 72.16,55.6667 Z M 72.16,58.3333L 72.16,59.6667L 71.84,59.6667L 71.84,58.3333L 72.16,58.3333 Z M 72.16,61L 72.16,62.3333L 71.84,62.3333L 71.84,61L 72.16,61 Z M 72.16,63.6667L 72.16,65L 71.84,65L 71.84,63.6667L 72.16,63.6667 Z M 72.16,66.3333L 72.16,67.6667L 71.84,67.6667L 71.84,66.3333L 72.16,66.3333 Z M 72.16,69L 72.16,70.3333L 71.84,70.3333L 71.84,69L 72.16,69 Z M 72.16,71.6667L 72.16,72.16L 71,72.16L 71,71.84L 72,71.84L 71.84,72L 71.84,71.6667L 72.16,71.6667 Z M 69.6667,72.16L 68.3333,72.16L 68.3333,71.84L 69.6667,71.84L 69.6667,72.16 Z M 67,72.16L 65.6667,72.16L 65.6667,71.84L 67,71.84L 67,72.16 Z M 64.3333,72.16L 63,72.16L 63,71.84L 64.3333,71.84L 64.3333,72.16 Z M 61.6667,72.16L 60.3333,72.16L 60.3333,71.84L 61.6667,71.84L 61.6667,72.16 Z M 59,72.16L 57.6667,72.16L 57.6667,71.84L 59,71.84L 59,72.16 Z M 56.3333,72.16L 55,72.16L 55,71.84L 56.3333,71.84L 56.3333,72.16 Z M 53.6667,72.16L 52.3333,72.16L 52.3333,71.84L 53.6667,71.84L 53.6667,72.16 Z M 51,72.16L 49.6667,72.16L 49.6667,71.84L 51,71.84L 51,72.16 Z M 48.3333,72.16L 47,72.16L 47,71.84L 48.3333,71.84L 48.3333,72.16 Z M 45.6667,72.16L 44.3333,72.16L 44.3333,71.84L 45.6667,71.84L 45.6667,72.16 Z M 43,72.16L 41.6667,72.16L 41.6667,71.84L 43,71.84L 43,72.16 Z M 40.3333,72.16L 39,72.16L 39,71.84L 40.3333,71.84L 40.3333,72.16 Z M 37.6667,72.16L 36.3333,72.16L 36.3333,71.84L 37.6667,71.84L 37.6667,72.16 Z M 35,72.16L 33.6667,72.16L 33.6667,71.84L 35,71.84L 35,72.16 Z M 32.3333,72.16L 31,72.16L 31,71.84L 32.3333,71.84L 32.3333,72.16 Z M 29.6667,72.16L 28.3333,72.16L 28.3333,71.84L 29.6667,71.84L 29.6667,72.16 Z M 27,72.16L 25.6667,72.16L 25.6667,71.84L 27,71.84L 27,72.16 Z M 24.3333,72.16L 23,72.16L 23,71.84L 24.3333,71.84L 24.3333,72.16 Z M 21.6667,72.16L 20.3333,72.16L 20.3333,71.84L 21.6667,71.84L 21.6667,72.16 Z M 19,72.16L 17.6667,72.16L 17.6667,71.84L 19,71.84L 19,72.16 Z M 16.3333,72.16L 15,72.16L 15,71.84L 16.3333,71.84L 16.3333,72.16 Z M 13.6667,72.16L 12.3333,72.16L 12.3333,71.84L 13.6667,71.84L 13.6667,72.16 Z M 11,72.16L 10.34,72.16L 10.34,71.1667L 10.66,71.1667L 10.66,72L 10.5,71.84L 11,71.84L 11,72.16 Z M 10.34,69.8333L 10.34,68.5L 10.66,68.5L 10.66,69.8333L 10.34,69.8333 Z M 10.34,67.1667L 10.34,65.8333L 10.66,65.8333L 10.66,67.1667L 10.34,67.1667 Z M 10.34,64.5L 10.34,63.1667L 10.66,63.1667L 10.66,64.5L 10.34,64.5 Z M 10.34,61.8333L 10.34,60.5L 10.66,60.5L 10.66,61.8333L 10.34,61.8333 Z M 10.34,59.1667L 10.34,57.8333L 10.66,57.8333L 10.66,59.1667L 10.34,59.1667 Z M 10.34,56.5L 10.34,55.1667L 10.66,55.1667L 10.66,56.5L 10.34,56.5 Z M 10.34,53.8333L 10.34,52.5L 10.66,52.5L 10.66,53.8333L 10.34,53.8333 Z M 10.34,51.1667L 10.34,49.8333L 10.66,49.8333L 10.66,51.1667L 10.34,51.1667 Z M 10.34,48.5L 10.34,47.1667L 10.66,47.1667L 10.66,48.5L 10.34,48.5 Z M 10.34,45.8333L 10.34,44.5L 10.66,44.5L 10.66,45.8333L 10.34,45.8333 Z M 10.34,43.1667L 10.34,41.8333L 10.66,41.8333L 10.66,43.1667L 10.34,43.1667 Z M 10.34,40.5L 10.34,39.1667L 10.66,39.1667L 10.66,40.5L 10.34,40.5 Z M 10.34,37.8333L 10.34,36.5L 10.66,36.5L 10.66,37.8333L 10.34,37.8333 Z M 10.34,35.1667L 10.34,33.8333L 10.66,33.8333L 10.66,35.1667L 10.34,35.1667 Z M 10.34,32.5L 10.34,31.1667L 10.66,31.1667L 10.66,32.5L 10.34,32.5 Z M 10.34,29.8333L 10.34,28.5L 10.66,28.5L 10.66,29.8333L 10.34,29.8333 Z M 10.34,27.1667L 10.34,25.8333L 10.66,25.8333L 10.66,27.1667L 10.34,27.1667 Z M 10.34,24.5L 10.34,23.1667L 10.66,23.1667L 10.66,24.5L 10.34,24.5 Z M 10.34,21.8333L 10.34,20.5L 10.66,20.5L 10.66,21.8333L 10.34,21.8333 Z M 10.34,19.1667L 10.34,17.8333L 10.66,17.8333L 10.66,19.1667L 10.34,19.1667 Z M 10.34,16.5L 10.34,15.1667L 10.66,15.1667L 10.66,16.5L 10.34,16.5 Z M 10.34,13.8333L 10.34,12.5L 10.66,12.5L 10.66,13.8333L 10.34,13.8333 Z M 10.34,11.1667L 10.34,10.34C 10.3933,10.34 10.4467,10.34 10.5,10.34L 11.8333,10.34L 11.8333,10.66L 10.5,10.66L 10.66,10.5L 10.66,11.1667L 10.34,11.1667 Z "/>
	<rect x="9" y="9" fill="#FFFFFF" fill-opacity="1" stroke-width="0.32" stroke-linejoin="miter" stroke="#000000" stroke-opacity="1" width="3" height="3"/>
	<rect x="70.5" y="9" fill="#FFFFFF" fill-opacity="1" stroke-width="0.32" stroke-linejoin="miter" stroke="#000000" stroke-opacity="1" width="3" height="3"/>
	<rect x="9" y="70.5" fill="#FFFFFF" fill-opacity="1" stroke-width="0.32" stroke-linejoin="miter" stroke="#000000" stroke-opacity="1" width="3" height="3"/>
	<rect x="70.5" y="70.5" fill="#FFFFFF" fill-opacity="1" stroke-width="0.32" stroke-linejoin="miter" stroke="#000000" stroke-opacity="1" width="3" height="3"/>
	<rect x="9" y="39" fill="#FFFFFF" fill-opacity="1" stroke-width="0.32" stroke-linejoin="miter" stroke="#000000" stroke-opacity="1" width="3" height="3"/>
	<rect x="70.5" y="39" fill="#FFFFFF" fill-opacity="1" stroke-width="0.32" stroke-linejoin="miter" stroke="#000000" stroke-opacity="1" width="3" height="3"/>
	<rect x="39" y="9" fill="#FFFFFF" fill-opacity="1" stroke-width="0.32" stroke-linejoin="miter" stroke="#000000" stroke-opacity="1" width="3" height="3"/>
	<rect x="39" y="70.5" fill="#FFFFFF" fill-opacity="1" stroke-width="0.32" stroke-linejoin="miter" stroke="#000000" stroke-opacity="1" width="3" height="3"/>
	<path fill="#0073AA" fill-opacity="1" stroke-width="0.32" stroke-linejoin="miter" d="M 32.832,24.9063C 36.332,24.1563 42.832,23.1563 48.332,23.1563C 53.832,23.1563 58.332,24.1563 59.082,25.9063C 59.832,27.6563 56.832,30.1563 53.832,30.6563C 50.832,31.1563 47.832,29.6563 47.832,30.4063C 47.832,31.1563 50.832,34.1563 54.082,34.4063C 57.332,34.6563 60.832,32.1563 63.082,33.1563C 65.332,34.1563 66.332,38.6563 64.332,40.4063C 62.332,42.1563 57.332,41.1563 58.082,41.6563C 58.832,42.1563 65.332,44.1563 67.832,46.9063C 70.332,49.6563 68.832,53.1563 66.082,55.1563C 63.332,57.1563 59.332,57.6563 59.582,59.1563C 59.832,60.6563 64.332,63.1563 63.332,64.6563C 62.332,66.1563 55.832,66.6563 50.832,66.6563C 45.832,66.6563 42.332,66.1563 41.582,61.9063C 40.832,57.6563 42.832,49.6563 41.082,48.6563C 39.332,47.6563 33.832,53.6563 32.832,57.9063C 31.832,62.1563 35.332,64.6563 34.832,66.1563C 34.332,67.6563 29.832,68.1563 27.082,66.4063C 24.332,64.6563 23.332,60.6563 23.832,55.6563C 24.332,50.6563 26.332,44.6563 30.082,42.4063C 33.832,40.1563 39.332,41.6563 42.832,44.4063C 46.332,47.1563 47.832,51.1563 49.082,53.9063C 50.332,56.6563 51.332,58.1563 52.082,57.4063C 52.832,56.6563 53.332,53.6563 54.832,52.4063C 56.332,51.1563 58.832,51.6563 58.582,50.9063C 58.332,50.1563 55.332,48.1563 53.082,45.9063C 50.832,43.6563 49.332,41.1563 47.082,38.9063C 44.832,36.6563 41.832,34.6563 41.082,32.6563C 40.332,30.6563 41.832,28.6563 41.082,28.4063C 40.332,28.1563 37.332,29.6563 36.082,31.1563C 34.832,32.6563 35.332,34.1563 36.832,35.4063C 38.332,36.6563 40.832,37.6563 39.332,37.9063C 37.832,38.1563 32.332,37.6563 28.582,39.1563C 24.832,40.6563 22.832,44.1563 21.832,46.9063C 20.832,49.6563 20.832,51.6563 20.082,51.9063C 19.332,52.1563 17.832,50.6563 17.582,47.9063C 17.332,45.1563 18.332,41.1563 18.832,37.6563C 19.332,34.1563 19.332,31.1563 19.082,28.1563C 18.832,25.1563 18.332,22.1563 18.582,19.6563C 18.832,17.1563 19.832,15.1563 22.832,14.6563C 25.832,14.1563 30.832,15.1563 31.832,16.6563C 32.832,18.1563 29.832,20.1563 28.582,21.9063C 27.332,23.6563 27.832,25.1563 28.332,25.6563C 28.832,26.1563 29.332,25.6563 32.832,24.9063 Z "/>
</svg>
